<?xml version="1.0" encoding="UTF-8"?><svg id="Layer_1" xmlns="http://www.w3.org/2000/svg" viewBox="0 0 138 40"><defs><style>.cls-1{fill:#fff;}</style></defs><path class="cls-1" d="m79.05,10.2c0-1.62-.87-2.96-2-3.22,1.14-.26,2-1.6,2-3.22,0-1.8-1.07-3.26-2.4-3.26-1.32,0-2.4,1.46-2.4,3.26,0,1.62.87,2.96,2,3.22-1.14.26-2,1.6-2,3.22s.94,3.07,2.14,3.24c-1.21.17-2.14,1.56-2.14,3.24s.91,3.03,2.09,3.23h-2.09v19.58h4.79v-19.58h-2.09c1.18-.21,2.09-1.58,2.09-3.23s-.94-3.07-2.14-3.24c1.21-.17,2.14-1.56,2.14-3.24Z"/><path class="cls-1" d="m104.14,29.8c0,1.62.87,2.96,2,3.22-1.14.26-2,1.6-2,3.22,0,1.8,1.07,3.26,2.4,3.26s2.4-1.46,2.4-3.26c0-1.62-.87-2.96-2-3.22,1.14-.26,2-1.6,2-3.22s-.94-3.07-2.14-3.24c1.21-.17,2.14-1.56,2.14-3.24s-.91-3.03-2.09-3.23h2.09V.5h-4.79v19.58h2.09c-1.18.21-2.09,1.58-2.09,3.23s.94,3.07,2.14,3.24c-1.21.17-2.14,1.56-2.14,3.24Z"/><path class="cls-1" d="m46.28,26.44h0s-.05,0-.05,0h-1.59c-.43,0-.78-.48-.78-1.07h0c0-2.98-1.77-5.39-3.96-5.39h-5.63v-3.23h0v-.14h0c-.05-1.72-1.09-3.09-2.37-3.09h2.42v-4.55c0-1.05.63-1.9,1.4-1.9h4.33c.76,0,1.38.84,1.38,1.88v1.27h0v.14h0c.05,1.72,1.09,3.09,2.37,3.09h.05c1.31,0,2.37-1.45,2.37-3.23h0c0-1.76-1.03-3.19-2.32-3.23h0s-.05,0-.05,0h-1.03c-.21,0-.31-.27-.15-.41.67-.57,1.12-1.59,1.12-2.75h0c0-1.78-1.06-3.23-2.37-3.23h-7.16c-1.31,0-2.37,1.45-2.37,3.23h0c0,1.78,1.06,3.23,2.37,3.23h-4.76v4.03h0v5.02c-.03.2,0,.41,0,.63h0c0,1.76,1,3.19,2.29,3.23h0s.05,0,.05,0h2.42c-1.31,0-2.37,1.45-2.37,3.23h0c0,1.78,1.06,3.23,2.37,3.23h2.42c1.25,0,2.27-1.31,2.36-2.98h0v2.98h3.96c.43,0,.78.48.78,1.07v2.16h0v1.27c0,1.06-.63,1.92-1.41,1.92h-3.35v2.79c-.17-1.56-1.15-2.75-2.34-2.75h-3.37c-.77,0-1.4-.85-1.4-1.9v-4.52h-4.79v6.53h4.16c-1.02.36-1.77,1.62-1.77,3.12h0c0,1.78,1.06,3.23,2.37,3.23l11.93.04v-6.49h2.4c1.31,0,2.37-1.45,2.37-3.23h0c0-1.76-1.03-3.19-2.32-3.23Z"/><path class="cls-1" d="m69.14,13.58s-.04-.08,0-.09c1-.28,1.77-1.61,1.77-3.21h0c0-1.79-.97-3.26-2.15-3.26-.04,0-.07,0-.11,0h-3.26c-.77,0-1.29-.88-1-1.69.16-.45.25-.96.25-1.51,0-1.78-.96-3.23-2.15-3.23h-8.9c-1.19,0-2.15,1.45-2.15,3.23,0,1.43.62,2.65,1.49,3.07.04.02.03.09-.02.09h-3.63s-.04.02-.04.05v9.78h0c.05,1.72.99,3.09,2.15,3.09h-1.87c-1.19,0-2.15,1.45-2.15,3.23s.96,3.23,2.15,3.23h1.4c-.86.36-1.5,1.49-1.58,2.86h0v.1c0,.06,0,.12,0,.18s0,.12,0,.18v3.11s0,.01,0,.02v6.43s.02.05.04.05h4.27s.04-.02.04-.05v-6.43s-.02-.05-.04-.05h-2.12c1.2-.01,2.16-1.47,2.16-3.26,0-1.5-.67-2.75-1.59-3.14h1.73c1.19,0,2.15-1.45,2.15-3.23s-.96-3.23-2.15-3.23h-2.39c1.19,0,2.15-1.45,2.15-3.23h0c0-1.76-.94-3.19-2.11-3.23h0s2.07,0,2.07,0c.02,0,.04-.02.04-.05v-3.88c0-1.36.73-2.46,1.64-2.46h7.26s.03,0,.05,0c1.05.21,1.87,1.59,1.87,3.23s-.87,3.11-1.98,3.25c0,0,0,0,0,0h-.14c1.17.02,2.13,1.48,2.13,3.26h0c0,1.49-.67,2.75-1.57,3.14,0,0-.02,0-.02,0-.12-.03-.23-.04-.36-.04-1.02,0-1.88,1.05-2.11,2.48,0,.05-.07.05-.08,0-.23-1.42-1.09-2.48-2.11-2.48-1.2,0-2.18,1.46-2.18,3.26s.97,3.26,2.18,3.26c1.02,0,1.88-1.05,2.11-2.48,0-.05.07-.05.08,0,.23,1.42,1.09,2.48,2.11,2.48,1.2,0,2.18-1.46,2.18-3.26,0-1.37-.56-2.53-1.35-3.02-.04-.02-.02-.09.02-.09h5.34s0,0,0,0c.04,0,.09,0,.13,0,1.19,0,2.15-1.47,2.15-3.26h0c0-1.6-.77-2.95-1.78-3.21Z"/><path class="cls-1" d="m98.73,19.97s.09,0,.14,0c1.24,0,2.26-1.47,2.26-3.26h0c0-1.73-.95-3.16-2.13-3.26h0c1.18-.11,2.12-1.53,2.12-3.26h0c0-1.79-1.02-3.26-2.26-3.26-.04,0-.08,0-.11,0h-4.98c1.36-.36,2.37-1.62,2.37-3.12h0c0-1.78-1.42-3.23-3.16-3.23h-5.04c-1.75,0-3.16,1.45-3.16,3.23h0c0,1.55,1.08,2.85,2.51,3.16,0,0,0,0,0,0h-4.06v9.82h0c.05,1.72,1.04,3.09,2.26,3.09h-1.28c-1.69,0-3.12,1.33-3.21,3.06-.09,1.86,1.36,3.4,3.16,3.4h.88c-1.1.3-1.93,1.64-1.93,3.23,0,.11.01,9.75.01,9.75h4.68v-6.53h-1.77c1.08-.32,1.9-1.64,1.9-3.22s-.83-2.93-1.93-3.23h.83c1.69,0,3.12-1.33,3.21-3.06.09-1.86-1.36-3.4-3.16-3.4h-1.33c1.25,0,2.26-1.45,2.26-3.23s-.99-3.19-2.21-3.23h0s2.21,0,2.21,0h0v-5.03c0-.75.6-1.36,1.33-1.36,1.11,0,2.61,0,3.21,0,.2,0,.4.05.57.15.81.5,1.39,1.66,1.39,3.01h0c0,1.7-.92,3.11-2.07,3.25h-.15c1.23.02,2.24,1.48,2.24,3.26h0c0,1.46-.68,2.71-1.6,3.12-.08-.01-.16-.02-.24-.02-1.33,0-2.41,1.48-2.41,3.3,0,1.64.87,2.99,2.01,3.25h0v6.51h4.5v6.53h4.57v-6.53h-3.25c-.69,0-1.25-.57-1.25-1.27v-5.25h-3.72c1.12-.29,1.96-1.63,1.96-3.24,0-1.48-.71-2.73-1.69-3.15,0,0,0,0,0,0h5.57Z"/><path class="cls-1" d="m25.83,10.32h0c0-1.79-.96-3.26-2.13-3.26-.04,0-.07,0-.11,0h-5.77s-.05-.03-.05-.06h0s.02-.04.03-.05c.91-.38,1.58-1.64,1.58-3.15,0-1.77-.92-3.2-2.08-3.26h0s-8.59,0-8.59,0h0c-1.18.02-2.12,1.47-2.12,3.26,0,1.69.85,3.08,1.93,3.25h-1.84c-1.23.02-2.21,1.61-2.12,3.52.08,1.6.94,2.89,2,3,1.18.12,2.17-1.22,2.28-2.94h.01v-1.96c0-.89.47-1.6,1.06-1.6h7.21l.41.03c1.04.21,1.85,1.58,1.85,3.23h0c0,1.64-.8,3.01-1.84,3.23h-.3c.07,0,.13,0,.19.02,0,0,0,0-.01,0h.03c1.06.18,1.89,1.57,1.89,3.24h0c0,1.61-.77,2.95-1.76,3.21l-.1.02s-.06.01-.09.01h.16c1.02.24,1.81,1.6,1.81,3.22h0c0,1.21-.44,2.28-1.08,2.84-.29.25-.64.37-1,.37h0s0,5.22,0,5.22c0,.66-.35,1.2-.79,1.2h-7.77c-.09,0-.18.01-.26.03-.97-.3-1.7-1.62-1.7-3.2h0c0-1.62.78-2.96,1.78-3.22h6.79c1.15-.06,2.08-1.5,2.08-3.26s-.92-3.2-2.08-3.26h0s-8.59,0-8.59,0h0c-1.18.02-2.12,1.47-2.12,3.26,0,1.65.8,3.01,1.85,3.23h-3.88s-.09,0-.13,0h0c-1.17,0-2.13,1.47-2.13,3.26H.33c0,1.79.96,3.26,2.13,3.26h0s.07,0,.11,0h4.81c.19,0,.26.36.11.53-.54.59-.88,1.55-.88,2.64,0,1.79.95,3.24,2.12,3.26h0s8.59,0,8.59,0h0c.14,0,.28-.04.42-.09,2.24-1.07,2.24-5.22.04-6.34h3.02c.4,0,.72.49.72,1.09v5.33h4.25v-6.46h-3.53c-.4,0-.72-.49-.72-1.09v-5.37h2.02s.09,0,.13,0h0c1.17,0,2.13-1.47,2.13-3.26h0c0-1.66-.82-3.05-1.87-3.24,1.05-.2,1.87-1.58,1.87-3.24h0c0-1.68-.84-3.07-1.9-3.24,1.08-.15,1.94-1.55,1.94-3.25Z"/><path class="cls-1" d="m134.51.57h-.91c-1.75,0-3.16,1.45-3.16,3.23v.07c0,1.5,1,2.76,2.36,3.12h-1.16v6.53h2.23c-1.22.16-2.18,1.56-2.18,3.26s1.03,3.21,2.32,3.26c-1.33,0-2.4,1.48-2.4,3.3,0,1.68.91,3.06,2.1,3.27-1,.18-1.8,1.2-2.02,2.52-.24-1.47-1.2-2.56-2.35-2.56,0,0,0,0,0,0v-6.56h-3.62c-.64,0-1.15-.53-1.15-1.18v-5.32h-4.36c-.07,0-.09-.09-.03-.12.86-.5,1.46-1.67,1.46-3.03,0-1.72-.96-3.13-2.19-3.28,1.52-.24,2.68-1.58,2.68-3.19h0c0-1.78-1.42-3.23-3.16-3.23h-4.37c-1.75,0-3.16,1.45-3.16,3.23h0c0,1.73,1.33,3.14,3,3.22-1.05.34-1.83,1.63-1.83,3.17,0,1.71.97,3.12,2.2,3.25-1.22.16-2.17,1.57-2.17,3.28,0,1.56.8,2.87,1.86,3.21-1.07.31-1.87,1.59-1.89,3.12h0v9.86h1.16c-1.36.36-2.36,1.62-2.36,3.12v.07c0,1.78,1.42,3.23,3.16,3.23h.91c1.75,0,3.16-1.45,3.16-3.23v-.07c0-1.5-1-2.76-2.36-3.12h1.17v-6.53h-2.44s0,0,0,0c1.32,0,2.38-1.47,2.38-3.26,0-1.55-.79-2.84-1.85-3.18,1.09-.32,1.91-1.64,1.91-3.23,0-1.73-.98-3.15-2.22-3.29.8-.11,1.49-.75,1.86-1.67.4,1.07,1.21,1.79,2.14,1.79.17,0,.34-.03.51-.07v6.51h4.77v6.49h4.1c.07,0,.09.1.03.13-.99.41-1.7,1.67-1.7,3.15s.65,2.63,1.57,3.09c-1.59.17-2.84,1.54-2.84,3.21,0,1.78,1.42,3.23,3.16,3.23h4.37c1.75,0,3.16-1.45,3.16-3.23,0-1.44-.92-2.65-2.19-3.07,1.25-.1,2.25-1.52,2.25-3.26,0-1.66-.91-3.03-2.08-3.23,1.18-.21,2.09-1.59,2.09-3.27,0-1.79-1.04-3.24-2.34-3.3,1.32,0,2.39-1.46,2.39-3.26,0-.08,0-.15,0-.23h0V6.99h-1.16c1.36-.36,2.36-1.62,2.36-3.12v-.07c0-1.78-1.42-3.23-3.16-3.23Zm-17.4,8.2c-.31-.82-.88-1.44-1.55-1.66h3.24c-.73.18-1.34.8-1.69,1.66Zm16.09,24.17h-2.99c.74-.39,1.31-1.28,1.48-2.36.19,1.12.8,2.01,1.59,2.36-.03,0-.05,0-.08,0Z"/></svg>